<svg width="33" height="21" viewBox="0 0 33 21" fill="none" xmlns="http://www.w3.org/2000/svg">
<path d="M5.57558 2.50131C5.87393 2.50131 5.90422 2.50131 6.12555 3.11062C7.47164 6.95462 10.4912 12.6426 12.6966 12.6426C14.3535 12.6426 14.3535 10.9959 14.3535 10.376L14.3521 5.44C14.2614 3.80663 13.6481 2.99331 13.2452 2.5L18.0687 2.50531C18.0714 2.528 18.0412 7.96531 18.0824 9.28263C18.0824 11.1533 19.6141 12.2253 22.0053 9.87862C24.5284 7.11731 26.2732 2.98931 26.3434 2.82131C26.4464 2.58131 26.5358 2.5 26.8603 2.5H30.2441H30.2579C30.2566 2.50394 30.2566 2.50794 30.2552 2.51194C29.9458 3.91194 26.8919 8.37331 25.8703 9.75863C25.8538 9.77994 25.8388 9.80262 25.8235 9.82531C25.374 10.5373 25.0082 11.3239 25.8854 12.4306H25.8868C25.9666 12.5239 26.1742 12.7426 26.4767 13.0467C27.4172 13.9879 30.6429 17.2066 30.9289 18.4867C30.7391 18.5159 30.5329 18.4947 27.3361 18.5013C26.6555 18.5013 26.1234 17.5146 24.0925 15.528C22.2665 13.8053 21.0813 13.1013 20.0019 13.1013C17.9064 13.1013 18.0591 14.7506 18.0782 16.7453C18.0852 18.908 18.0714 18.2239 18.0866 18.3599C17.9642 18.4066 17.6135 18.5 16.6992 18.5C7.97495 18.5 2.29347 5.07194 2.07485 2.50531C2.15045 2.49862 3.19136 2.50262 5.57558 2.50131ZM16.6992 20.5C21.4731 20.5 19.7709 17.5693 20.1394 16.7266C20.1339 16.0973 20.1284 15.492 20.1504 15.124C20.4529 15.2066 21.1665 15.5573 22.6405 16.9466C24.9161 19.1733 25.4977 20.5 27.3361 20.5H30.7199C31.7924 20.5 32.3506 20.0693 32.6298 19.708C32.8993 19.3586 33.1633 18.7453 32.8745 17.7906C32.1196 15.492 27.7169 11.5226 27.4433 11.104C27.4846 11.0266 27.5506 10.924 27.5849 10.8706H27.5821C28.4512 9.75731 31.7677 4.93862 32.2558 3.01062C32.2572 3.00794 32.2585 3.00394 32.2585 3C32.5225 2.11994 32.2805 1.54931 32.0303 1.22663C31.6535 0.743938 31.0541 0.5 30.2441 0.5H26.8603C25.7273 0.5 24.868 1.05331 24.4335 2.06262C23.7061 3.85594 21.6629 7.544 20.1312 8.84931C20.0844 7 20.116 5.588 20.1407 4.53862C20.1903 2.492 20.3498 0.5 18.1594 0.5H12.841C11.4688 0.5 10.1556 1.95331 11.5774 3.67863C12.8203 5.19063 12.0242 6.03331 12.2924 10.2279C11.2474 9.14131 9.38839 6.20662 8.07395 2.45594C7.70541 1.44131 7.14719 0.501312 5.57558 0.501312H2.19177C0.819512 0.501312 0 1.22663 0 2.44131C0 5.16931 6.22732 20.5 16.6992 20.5Z" fill="#3E3B48"/>
</svg>
