<svg width="27" height="27" viewBox="0 0 27 27" fill="none" xmlns="http://www.w3.org/2000/svg">
<path fill-rule="evenodd" clip-rule="evenodd" d="M27 13.0993C26.93 20.4662 20.92 26.3677 13.58 26.2974C11.4 26.2774 9.25 25.7153 7.34 24.6615L0 27L2.39 19.9142C1.14 17.8667 0.49 15.4981 0.49 13.0993C0.6 5.75251 6.63 -0.108868 13.95 0.00153436C21.11 0.111937 26.89 5.91309 27 13.0993ZM13.75 2.00886C7.62 1.98878 2.63 6.9569 2.6 13.0993C2.6 15.4378 3.34 17.7262 4.72 19.6131L3.33 23.7281L7.61 22.3631C12.69 25.7956 19.58 24.4407 23 19.3521C26.42 14.2635 25.07 7.33829 19.99 3.90577C18.15 2.66123 15.97 1.99882 13.75 2.00886ZM20.44 16.1404C20.26 15.9698 20.05 15.8393 19.82 15.759C19.49 15.6085 17.9 14.8156 17.6 14.7152C17.38 14.5546 17.06 14.6048 16.9 14.8256C16.89 14.8457 16.88 14.8557 16.87 14.8758C16.65 15.197 16.03 15.9296 15.84 16.1404C15.67 16.3512 15.36 16.3913 15.14 16.2207C14.18 15.8393 13.3 15.2973 12.53 14.6148C11.82 13.9625 11.21 13.2097 10.72 12.3767C10.58 12.1559 10.64 11.8648 10.85 11.7243C10.85 11.7243 10.86 11.7243 10.86 11.7143C11.01 11.5737 11.19 11.3429 11.35 11.1522C11.48 10.9916 11.59 10.811 11.68 10.6102C11.77 10.4296 11.76 10.2188 11.65 10.0482C11.57 9.87755 10.92 8.29177 10.65 7.63939C10.38 6.98701 10.1 7.10745 9.91 7.10745C9.72 7.10745 9.51 7.07734 9.29 7.07734C8.96 7.08738 8.64 7.23793 8.42 7.4788C7.68 8.18137 7.27 9.15492 7.28 10.1787C7.38 11.4031 7.85 12.5674 8.61 13.5208C8.77 13.7416 10.86 17.1139 14.16 18.4087C17.46 19.7034 17.46 19.2718 18.06 19.2216C18.98 19.041 19.77 18.4789 20.25 17.676C20.47 17.1942 20.53 16.6623 20.44 16.1404Z" fill="#00C451"/>
</svg>
