<svg width="27" height="25" viewBox="0 0 27 25" fill="none" xmlns="http://www.w3.org/2000/svg">
<path fill-rule="evenodd" clip-rule="evenodd" d="M21.7441 24.5C21.5302 24.5 21.3164 24.4345 21.1476 24.3145L14.361 19.7436L10.7145 22.34C10.4331 22.5473 10.0617 22.6018 9.72405 22.4818C9.38641 22.3618 9.13881 22.0891 9.04877 21.7509L7.22551 14.8673L0.686536 12.3909C0.270113 12.2273 0 11.8345 0 11.3982C0 10.9618 0.258858 10.5691 0.675281 10.4055L25.5256 0.587273C25.6382 0.532727 25.7507 0.510909 25.8745 0.5H25.9983C26.2572 0.510909 26.5048 0.62 26.6849 0.805455C26.7074 0.827273 26.7186 0.838182 26.7411 0.86C26.8987 1.03455 26.9887 1.25273 27 1.48182C27 1.53636 27 1.60182 27 1.65636C27 1.7 26.9887 1.73273 26.9775 1.77636L22.7795 23.6382C22.712 23.9873 22.4756 24.2818 22.138 24.4236C22.0254 24.4782 21.8791 24.5 21.7441 24.5ZM14.9462 17.5727L21.0013 21.6527L24.2651 4.64545L12.4702 15.9036L14.9125 17.5618C14.935 17.5618 14.935 17.5727 14.9462 17.5727ZM9.91538 16.6673L10.7257 19.7218L12.4702 18.4673L10.1855 16.9291C10.0729 16.8636 9.98291 16.7655 9.91538 16.6673ZM4.00667 11.3764L8.49729 13.0782C8.82368 13.1982 9.06003 13.4709 9.15006 13.7982L9.72405 15.9364C9.74656 15.6964 9.87036 15.4673 10.0504 15.2927L21.2826 4.54727L4.00667 11.3764Z" fill="#4BBCF3"/>
</svg>
