<svg width="16" height="16" viewBox="0 0 16 16" fill="none" xmlns="http://www.w3.org/2000/svg">
<path fill-rule="evenodd" clip-rule="evenodd" d="M12.8854 15.5C12.7586 15.5 12.6319 15.4591 12.5319 15.3841L8.51021 12.5273L6.34931 14.15C6.18258 14.2795 5.96248 14.3136 5.7624 14.2386C5.56232 14.1636 5.41559 13.9932 5.36223 13.7818L4.28178 9.47955L0.406836 7.93182C0.160067 7.82955 0 7.58409 0 7.31136C0 7.03864 0.153397 6.79318 0.400167 6.69091L15.1263 0.554545C15.193 0.520455 15.2597 0.506818 15.3331 0.5H15.4064C15.5598 0.506818 15.7065 0.575 15.8133 0.690909C15.8266 0.704545 15.8333 0.711364 15.8466 0.725C15.94 0.834091 15.9933 0.970455 16 1.11364C16 1.14773 16 1.18864 16 1.22273C16 1.25 15.9933 1.27045 15.9867 1.29773L13.499 14.9614C13.4589 15.1795 13.3189 15.3636 13.1188 15.4523C13.0521 15.4864 12.9654 15.5 12.8854 15.5ZM8.85702 11.1705L12.4452 13.7205L14.3793 3.09091L7.38975 10.1273L8.83702 11.1636C8.85035 11.1636 8.85035 11.1705 8.85702 11.1705ZM5.87578 10.6045L6.35598 12.5136L7.38975 11.7295L6.03585 10.7682C5.96915 10.7273 5.9158 10.6659 5.87578 10.6045ZM2.37432 7.29773L5.03543 8.36136C5.22885 8.43636 5.3689 8.60682 5.42226 8.81136L5.7624 10.1477C5.77574 9.99773 5.8491 9.85455 5.95582 9.74545L12.6119 3.02955L2.37432 7.29773Z" fill="#4BBCF3"/>
</svg>
