<svg width="17" height="19" viewBox="0 0 17 19" fill="none" xmlns="http://www.w3.org/2000/svg">
<path d="M5.60163 8.57164C6.4377 10.3716 7.60819 11.7216 8.9459 12.481C9.11311 12.5654 9.30819 12.5654 9.4754 12.481C10.7852 11.8341 11.7885 11.0748 12.8754 10.9341C15.9688 10.4841 17.1951 12.5091 16.5541 15.1529C16.5541 15.2091 16.5262 15.2373 16.4984 15.2935C16.2475 15.856 15.3557 15.6873 15.3836 15.0685C15.4393 13.6904 15.1049 12.1998 13.6836 12.2279C11.2869 12.256 10.2557 14.506 9.58688 14.2529C7.02295 13.2404 5.23934 11.0466 4.15245 8.37476C3.87377 7.67164 3.95737 7.22164 4.79344 6.88414C6.24262 6.29351 6.74426 5.16851 6.35409 3.90289C5.9918 2.74976 4.90491 1.99039 3.8459 2.15914C2.53606 2.35601 1.75573 3.42476 1.75573 4.99976C1.75573 11.1591 7.07868 16.756 13.0705 16.9529C13.1262 16.9529 13.182 16.9529 13.2377 16.981C13.8229 17.1216 13.8229 17.9654 13.2656 18.106C13.182 18.1341 13.0984 18.1341 13.0147 18.1341C7.60819 18.2185 1.97868 13.3529 0.83606 7.55914C0.640978 6.60289 0.557372 5.61851 0.557372 4.63414C0.529503 2.72164 1.69999 1.25914 3.42786 0.865386C4.93278 0.527886 6.60491 1.39976 7.30163 2.86226C8.05409 4.43726 7.58032 6.34976 6.15901 7.50289C6.04754 7.61539 5.90819 7.69976 5.76885 7.81226C5.5459 8.00914 5.46229 8.31851 5.60163 8.57164Z" fill="#3E3B48"/>
</svg>
