<svg width="19" height="19" viewBox="0 0 19 19" fill="none" xmlns="http://www.w3.org/2000/svg">
<path fill-rule="evenodd" clip-rule="evenodd" d="M19 9.21803C18.9507 14.4021 14.7215 18.555 9.5563 18.5056C8.02222 18.4915 6.50926 18.096 5.16519 17.3544L0 19L1.68185 14.0137C0.802222 12.5729 0.344815 10.906 0.344815 9.21803C0.422222 4.04806 4.66556 -0.076611 9.81667 0.00107973C14.8552 0.0787705 18.9226 4.16107 19 9.21803ZM9.67593 1.41364C5.36222 1.39951 1.85074 4.8956 1.82963 9.21803C1.82963 10.8637 2.35037 12.474 3.32148 13.8018L2.34333 16.6975L5.35519 15.737C8.93 18.1525 13.7785 17.199 16.1852 13.6181C18.5919 10.0373 17.6419 5.16398 14.067 2.74851C12.7722 1.87272 11.2381 1.40658 9.67593 1.41364ZM14.3837 11.3581C14.257 11.238 14.1093 11.1462 13.9474 11.0897C13.7152 10.9837 12.5963 10.4258 12.3852 10.3551C12.2304 10.2421 12.0052 10.2774 11.8926 10.4328C11.8856 10.447 11.8785 10.454 11.8715 10.4681C11.7167 10.6942 11.2804 11.2097 11.1467 11.3581C11.027 11.5064 10.8089 11.5346 10.6541 11.4146C9.97852 11.1462 9.35926 10.7648 8.81741 10.2845C8.31778 9.82543 7.88852 9.29572 7.5437 8.70951C7.44519 8.55413 7.48741 8.3493 7.63519 8.25042C7.63519 8.25042 7.64222 8.25043 7.64222 8.24336C7.74778 8.14448 7.87444 7.98204 7.98704 7.84785C8.07852 7.73484 8.15593 7.60771 8.21926 7.46645C8.28259 7.33932 8.27556 7.19101 8.19815 7.07094C8.14185 6.95087 7.68444 5.83495 7.49444 5.37587C7.30444 4.91679 7.10741 5.00154 6.9737 5.00154C6.84 5.00154 6.69222 4.98035 6.53741 4.98035C6.30519 4.98741 6.08 5.09336 5.92519 5.26286C5.40444 5.75726 5.11593 6.44235 5.12296 7.16275C5.19333 8.02442 5.52407 8.8437 6.05889 9.51467C6.17148 9.67005 7.64222 12.0431 9.96444 12.9542C12.2867 13.8653 12.2867 13.5616 12.7089 13.5263C13.3563 13.3992 13.9122 13.0037 14.25 12.4387C14.4048 12.0996 14.447 11.7253 14.3837 11.3581Z" fill="white"/>
</svg>
