<svg width="105" height="29" viewBox="0 0 105 29" fill="none" xmlns="http://www.w3.org/2000/svg">
<g clip-path="url(#clip0_408_7261)">
<path d="M0 11.586L2.226 8.30556C2.709 8.91931 3.255 9.38492 3.801 9.72355C4.368 10.0622 4.935 10.2103 5.481 10.2103C5.733 10.2103 5.922 10.168 6.069 10.0833C6.216 9.99868 6.3 9.87169 6.3 9.72355C6.3 9.49074 5.985 9.25794 5.334 8.9828C5.187 8.91931 5.082 8.87698 4.998 8.85582C3.927 8.41138 3.15 7.90344 2.667 7.31085C2.184 6.71825 1.932 6.01984 1.932 5.19444C1.932 3.88228 2.415 2.82407 3.36 1.99868C4.326 1.15212 5.565 0.75 7.098 0.75C7.98 0.75 8.799 0.876984 9.534 1.15212C10.29 1.40608 10.962 1.8082 11.592 2.31614L9.849 5.40608C9.345 4.96164 8.883 4.62302 8.484 4.41138C8.064 4.19974 7.686 4.09392 7.35 4.09392C7.14 4.09392 6.972 4.13624 6.846 4.24206C6.72 4.34788 6.657 4.47487 6.657 4.64418C6.657 4.91931 7.035 5.21561 7.77 5.53307C7.959 5.61772 8.127 5.68122 8.232 5.74471C9.198 6.18915 9.891 6.67593 10.29 7.22619C10.689 7.77645 10.899 8.4537 10.899 9.30026C10.899 10.6124 10.395 11.713 9.387 12.5807C8.379 13.4484 7.098 13.8717 5.544 13.8717C4.578 13.8717 3.612 13.6812 2.667 13.3003C1.743 12.8981 0.84 12.3479 0 11.586Z" fill="#120E1E"/>
<path d="M14.07 13.5752L15.666 4.83443H12.999L13.713 1.0249H23.499L22.806 4.83443H20.223L18.627 13.5752H14.07Z" fill="#120E1E"/>
<path d="M37.002 13.5755L39.291 1.04639H44.1C45.906 1.04639 47.25 1.36385 48.195 1.99877C49.119 2.63369 49.581 3.56491 49.581 4.81358C49.581 5.85062 49.308 6.71834 48.783 7.41676C48.258 8.11517 47.502 8.55961 46.515 8.77125L48.3 13.5967H43.68L42.336 9.04639L41.496 13.5967H37.002V13.5755ZM42.777 6.59136H43.113C43.806 6.59136 44.31 6.48554 44.625 6.25274C44.94 6.01993 45.108 5.68131 45.108 5.19453C45.108 4.83475 44.982 4.55961 44.73 4.3903C44.478 4.22099 44.058 4.13633 43.512 4.13633H43.239L42.777 6.59136Z" fill="#120E1E"/>
<path d="M52.8991 13.5752L54.4951 4.83443H51.8281L52.5421 1.0249H62.3281L61.6351 4.83443H59.0521L57.4561 13.5752H52.8991Z" fill="#120E1E"/>
<path d="M61.929 11.5858L64.155 8.30539C64.638 8.91914 65.184 9.38475 65.73 9.72338C66.297 10.062 66.864 10.2101 67.41 10.2101C67.662 10.2101 67.851 10.1678 67.998 10.0832C68.145 9.99851 68.229 9.87152 68.229 9.72338C68.229 9.49057 67.914 9.25777 67.263 8.98264C67.116 8.91914 67.011 8.87682 66.927 8.85565C65.856 8.41121 65.079 7.90327 64.596 7.31068C64.113 6.71809 63.861 6.01967 63.861 5.19428C63.861 3.88211 64.344 2.82391 65.289 1.99851C66.234 1.17311 67.473 0.770996 69.006 0.770996C69.888 0.770996 70.707 0.89798 71.442 1.17311C72.177 1.44824 72.87 1.8292 73.5 2.3583L71.799 5.40592C71.295 4.96147 70.833 4.62285 70.434 4.41121C70.014 4.19957 69.636 4.09375 69.3 4.09375C69.09 4.09375 68.922 4.13608 68.796 4.2419C68.67 4.34772 68.607 4.4747 68.607 4.64401C68.607 4.91914 68.985 5.21544 69.72 5.5329C69.909 5.61756 70.077 5.68105 70.182 5.74454C71.148 6.18898 71.841 6.67576 72.24 7.22602C72.639 7.77629 72.849 8.45354 72.849 9.3001C72.849 10.6123 72.345 11.7128 71.337 12.5805C70.329 13.4482 69.027 13.8715 67.494 13.8715C66.528 13.8715 65.562 13.681 64.617 13.3001C63.672 12.898 62.79 12.3477 61.929 11.5858Z" fill="#120E1E"/>
<path d="M74.4451 13.5755L76.7551 1.04639H81.3331L79.0441 13.5755H74.4451Z" fill="#120E1E"/>
<path d="M84.3569 13.5752L85.9529 4.83443H83.2859L83.9999 1.0249H93.7859L93.0929 4.83443H90.5099L88.9139 13.5752H84.3569Z" fill="#120E1E"/>
<path d="M94.1641 13.5755L96.4531 1.04639H105L104.391 4.45379H100.338L100.107 5.66014H103.929L103.341 8.83475H99.5401L99.2881 10.1892H103.698L103.068 13.5967H94.1641V13.5755Z" fill="#120E1E"/>
<path d="M33.453 1.0249H28.539L22.05 13.5752H24.045L24.801 12.4746L26.943 10.9508L26.208 13.5752H26.88L28.434 7.79739L29.925 4.98257C30.471 4.30533 30.219 4.28416 30.4711 5.06723L31.101 8.03019L30.66 13.5752H31.374L31.542 11.226L33.201 13.1307L33.306 13.5752H35.0911L33.453 1.0249Z" fill="#120E1E"/>
<path d="M30.1734 10.7621C30.5998 10.3323 30.5998 9.63548 30.1734 9.2057C29.7469 8.77592 29.0555 8.77592 28.6291 9.2057C28.2026 9.63548 28.2026 10.3323 28.6291 10.7621C29.0555 11.1918 29.7469 11.1919 30.1734 10.7621Z" fill="#120E1E"/>
<path d="M15.96 26.8456L17.115 20.5811H18.795C19.32 20.5811 19.761 20.6022 20.097 20.6657C20.454 20.708 20.727 20.7927 20.958 20.8985C21.441 21.1525 21.819 21.4699 22.092 21.9144C22.344 22.3377 22.491 22.8456 22.491 23.3959C22.491 23.925 22.386 24.4117 22.155 24.8774C21.924 25.343 21.609 25.7239 21.189 26.0414C20.811 26.3377 20.349 26.5493 19.845 26.6763C19.341 26.8033 18.69 26.8668 17.934 26.8668H15.96V26.8456ZM18.564 24.962H18.585C19.089 24.962 19.488 24.835 19.761 24.5811C20.034 24.3271 20.181 23.9673 20.181 23.5229C20.181 23.1842 20.076 22.9303 19.887 22.7398C19.677 22.5493 19.404 22.4647 19.068 22.4647H19.026L18.564 24.962Z" fill="#120E1E"/>
<path d="M22.8899 26.8454L23.6879 22.4221H25.7669L24.9479 26.8454H22.8899ZM24.8429 22.1893C24.5279 22.1893 24.2759 22.0835 24.0659 21.893C23.8559 21.7026 23.7509 21.4697 23.7509 21.1735C23.7509 20.8772 23.8769 20.602 24.1289 20.3904C24.3809 20.1576 24.6749 20.0518 25.0109 20.0518C25.3259 20.0518 25.5779 20.1364 25.7879 20.3269C25.9979 20.5174 26.1029 20.7502 26.1029 21.0465C26.1029 21.3428 25.9769 21.6179 25.7249 21.8295C25.4939 22.0835 25.1999 22.1893 24.8429 22.1893Z" fill="#120E1E"/>
<path d="M29.883 22.4219H31.899L31.143 26.4219C30.996 27.1838 30.702 27.7552 30.219 28.1574C29.736 28.5383 29.127 28.7499 28.35 28.7499C28.014 28.7499 27.678 28.7076 27.342 28.623C27.006 28.5383 26.67 28.4113 26.313 28.242L27.006 26.9722C27.195 27.0992 27.384 27.205 27.573 27.2473C27.762 27.2896 27.951 27.332 28.14 27.332C28.413 27.332 28.623 27.2473 28.812 27.0992C29.001 26.951 29.127 26.7182 29.211 26.4219L29.316 26.041C29.127 26.2738 28.917 26.4642 28.707 26.5912C28.476 26.7182 28.245 26.7817 27.993 26.7817C27.51 26.7817 27.111 26.6124 26.796 26.2949C26.502 25.9775 26.355 25.533 26.355 25.0039C26.355 24.6865 26.418 24.369 26.523 24.0515C26.628 23.7341 26.775 23.4378 26.964 23.1838C27.174 22.8875 27.426 22.6759 27.699 22.5277C27.972 22.3796 28.266 22.2949 28.581 22.2949C28.854 22.2949 29.106 22.3584 29.295 22.4854C29.505 22.6124 29.673 22.8029 29.82 23.0568L29.883 22.4219ZM29.001 24.0304C28.833 24.0304 28.686 24.0939 28.581 24.2208C28.476 24.3478 28.413 24.5171 28.413 24.7076C28.413 24.8558 28.455 24.9828 28.539 25.0674C28.623 25.1521 28.728 25.1944 28.875 25.1944C29.064 25.1944 29.211 25.1309 29.316 25.0039C29.442 24.8769 29.484 24.7288 29.484 24.5171C29.484 24.369 29.442 24.242 29.358 24.1362C29.274 24.0727 29.169 24.0304 29.001 24.0304Z" fill="#120E1E"/>
<path d="M32.3608 26.8454L33.1588 22.4221H35.2378L34.4188 26.8454H32.3608ZM34.3138 22.1893C33.9988 22.1893 33.7468 22.0835 33.5368 21.893C33.3268 21.7026 33.2218 21.4697 33.2218 21.1735C33.2218 20.8772 33.3478 20.602 33.5998 20.3904C33.8518 20.1576 34.1458 20.0518 34.4818 20.0518C34.7968 20.0518 35.0488 20.1364 35.2588 20.3269C35.4688 20.5174 35.5738 20.7502 35.5738 21.0465C35.5738 21.3428 35.4478 21.6179 35.1958 21.8295C34.9648 22.0835 34.6708 22.1893 34.3138 22.1893Z" fill="#120E1E"/>
<path d="M35.9309 26.8456L36.4349 24.0096H35.9099L36.2039 22.4223H36.7499L36.9809 21.1948H39.0599L38.8289 22.4223H39.4589L39.1649 24.0096H38.5349L38.0099 26.8456H35.9309Z" fill="#120E1E"/>
<path d="M43.2809 22.4222H45.2969L44.4779 26.8455H42.5249L42.6719 26.2529C42.4829 26.5069 42.2939 26.6974 42.0629 26.8244C41.8529 26.9513 41.6009 27.0148 41.3279 27.0148C40.8659 27.0148 40.4669 26.8244 40.1729 26.4646C39.8579 26.1048 39.7109 25.618 39.7109 25.0466C39.7109 24.708 39.7739 24.3905 39.8789 24.0519C39.9839 23.7344 40.1309 23.4381 40.3409 23.163C40.5509 22.8667 40.8029 22.655 41.0759 22.4857C41.3489 22.3376 41.6429 22.2529 41.9369 22.2529C42.2099 22.2529 42.4619 22.3164 42.6509 22.4434C42.8399 22.5704 43.0289 22.7609 43.1759 23.036L43.2809 22.4222ZM42.3779 24.073C42.2099 24.073 42.0629 24.1365 41.9579 24.2635C41.8529 24.3905 41.7899 24.5598 41.7899 24.7714C41.7899 24.9408 41.8319 25.0466 41.9159 25.1312C41.9999 25.2159 42.1049 25.2582 42.2519 25.2582C42.4409 25.2582 42.5879 25.1947 42.6929 25.0677C42.7979 24.9408 42.8609 24.7714 42.8609 24.581C42.8609 24.4117 42.8189 24.2847 42.7349 24.2C42.6509 24.1154 42.5249 24.073 42.3779 24.073Z" fill="#120E1E"/>
<path d="M47.712 26.8452H45.675L46.893 20.1997H48.9511L47.712 26.8452Z" fill="#120E1E"/>
<path d="M51.5969 26.8456L54.8519 20.5811H57.3089L58.1279 26.8456H55.9229L55.8809 26.0202H54.3899L54.0539 26.8456H51.5969ZM54.9779 24.5176H55.7759L55.7549 23.8403C55.7549 23.798 55.7549 23.7557 55.7549 23.6922C55.7339 23.417 55.7339 23.1842 55.7339 23.0149C55.7339 22.9091 55.7339 22.8033 55.7339 22.7609C55.7339 22.7186 55.7339 22.634 55.7339 22.5916C55.6919 22.7609 55.6289 22.9303 55.5869 23.0784C55.5239 23.2266 55.4819 23.3747 55.4399 23.5017L54.9779 24.5176Z" fill="#120E1E"/>
<path d="M62.2861 22.4219H64.3021L63.5461 26.4219C63.3991 27.1838 63.1051 27.7552 62.6221 28.1574C62.1391 28.5383 61.5301 28.7499 60.7531 28.7499C60.4171 28.7499 60.0811 28.7076 59.7451 28.623C59.4091 28.5383 59.0731 28.4113 58.7161 28.242L59.4091 26.9722C59.5981 27.0992 59.7871 27.205 59.9761 27.2473C60.1651 27.3108 60.3541 27.332 60.5431 27.332C60.8161 27.332 61.0261 27.2473 61.2151 27.0992C61.4041 26.951 61.5301 26.7182 61.6141 26.4219L61.7191 26.041C61.5301 26.2738 61.3201 26.4642 61.1101 26.5912C60.8791 26.7182 60.6481 26.7817 60.3961 26.7817C59.9131 26.7817 59.5141 26.6124 59.1991 26.2949C58.9051 25.9775 58.7581 25.533 58.7581 25.0039C58.7581 24.6865 58.8211 24.369 58.9261 24.0515C59.0311 23.7341 59.1781 23.4378 59.3671 23.1838C59.5771 22.8875 59.8291 22.6759 60.1021 22.5277C60.3751 22.3796 60.6691 22.2949 60.9841 22.2949C61.2571 22.2949 61.5091 22.3584 61.6981 22.4854C61.9081 22.6124 62.0761 22.8029 62.2231 23.0568L62.2861 22.4219ZM61.4041 24.0304C61.2361 24.0304 61.0891 24.0939 60.9841 24.2208C60.8791 24.3478 60.8161 24.5171 60.8161 24.7076C60.8161 24.8558 60.8581 24.9828 60.9421 25.0674C61.0261 25.1521 61.1311 25.1944 61.2781 25.1944C61.4671 25.1944 61.6141 25.1309 61.7191 25.0039C61.8451 24.8769 61.8871 24.7288 61.8871 24.5171C61.8871 24.369 61.8451 24.242 61.7611 24.1362C61.6771 24.0727 61.5511 24.0304 61.4041 24.0304Z" fill="#120E1E"/>
<path d="M69.6779 24.8769H66.7799C66.7799 25.1097 66.8219 25.279 66.9269 25.3849C67.0109 25.5119 67.1579 25.5753 67.3259 25.5753C67.4519 25.5753 67.5569 25.5542 67.6409 25.4907C67.7249 25.4272 67.8299 25.3214 67.9349 25.1944L69.4889 25.533C69.2369 26.0198 68.9009 26.4007 68.5019 26.6335C68.1029 26.8875 67.6199 27.0145 67.0739 27.0145C66.4439 27.0145 65.9189 26.824 65.4989 26.4431C65.0789 26.0621 64.8899 25.5542 64.8899 24.9616C64.8899 24.6018 64.9529 24.2632 65.0789 23.9457C65.2049 23.6283 65.3729 23.3531 65.6039 23.1203C65.8559 22.8452 66.1499 22.6547 66.4859 22.5066C66.8219 22.3584 67.1789 22.2949 67.5569 22.2949C68.1869 22.2949 68.7329 22.4854 69.1319 22.8663C69.5309 23.2473 69.7409 23.7129 69.7409 24.2843C69.7409 24.3902 69.7409 24.496 69.7409 24.6018C69.6989 24.6865 69.6989 24.7711 69.6779 24.8769ZM66.8849 24.0727H67.9349V24.0092C67.9349 23.8611 67.8929 23.7552 67.8299 23.6706C67.7669 23.5859 67.6619 23.5436 67.5359 23.5436C67.3679 23.5436 67.2419 23.5859 67.1369 23.6706C67.0319 23.7552 66.9479 23.8822 66.8849 24.0727Z" fill="#120E1E"/>
<path d="M70.1399 26.8454L70.9589 22.4221H72.9119L72.7859 23.057C73.0379 22.803 73.2899 22.6126 73.5629 22.4644C73.8149 22.3374 74.0879 22.2739 74.3399 22.2739C74.7179 22.2739 75.0329 22.4009 75.2639 22.6337C75.4949 22.8665 75.5999 23.2051 75.5999 23.5861C75.5999 23.6919 75.5999 23.8189 75.5789 23.967C75.5579 24.1152 75.5369 24.2633 75.5159 24.4115L75.0749 26.8242H72.9959L73.3949 24.602C73.4159 24.5173 73.4159 24.4538 73.4369 24.3692C73.4369 24.3057 73.4579 24.221 73.4579 24.1575C73.4579 24.0729 73.4369 24.0094 73.3949 23.967C73.3529 23.9247 73.2899 23.8824 73.2059 23.8824C73.0589 23.8824 72.9329 23.9459 72.8279 24.094C72.7439 24.2422 72.6599 24.475 72.5969 24.8348L72.2399 26.803H70.1399V26.8454Z" fill="#120E1E"/>
<path d="M79.401 26.8452C79.212 26.9087 79.044 26.951 78.897 26.9722C78.75 26.9933 78.603 27.0145 78.456 27.0145C77.826 27.0145 77.322 26.824 76.923 26.4431C76.524 26.0621 76.335 25.5542 76.335 24.9616C76.335 24.6018 76.398 24.2632 76.524 23.9457C76.65 23.6283 76.818 23.3531 77.049 23.0992C77.301 22.8452 77.595 22.6335 77.931 22.5066C78.267 22.3796 78.624 22.2949 79.002 22.2949C79.212 22.2949 79.422 22.3161 79.611 22.3584C79.8 22.4007 79.989 22.4642 80.178 22.5489L79.884 24.1997C79.758 24.115 79.632 24.0515 79.506 24.0092C79.401 23.9669 79.296 23.9457 79.191 23.9457C78.96 23.9457 78.771 24.0092 78.624 24.1574C78.477 24.3055 78.414 24.496 78.414 24.7288C78.414 24.9404 78.477 25.0886 78.603 25.2156C78.729 25.3425 78.897 25.406 79.107 25.406C79.191 25.406 79.296 25.3849 79.38 25.3637C79.485 25.3425 79.569 25.3002 79.695 25.2367L79.401 26.8452Z" fill="#120E1E"/>
<path d="M79.926 28.7501L81.564 26.0411L80.577 22.4009H82.551L82.761 23.5014C82.803 23.6707 82.824 23.8189 82.845 23.967C82.866 24.1152 82.866 24.221 82.887 24.348C82.908 24.221 82.95 24.094 83.013 23.9459C83.055 23.7977 83.139 23.6496 83.202 23.5014L83.727 22.422H85.89L82.194 28.7501H79.926Z" fill="#120E1E"/>
</g>
<defs>
<clipPath id="clip0_408_7261">
<rect width="105" height="28" fill="white" transform="translate(0 0.75)"/>
</clipPath>
</defs>
</svg>
