<svg width="49" height="65" viewBox="0 0 49 65" fill="none" xmlns="http://www.w3.org/2000/svg">
<path d="M0 0H49V65L24.5 53L0 65V0Z" fill="#E83C65"/>
<path d="M16.6584 40.794V37.076H9.59636V35.36L17.2744 25.438H18.5944V35.316H20.5304V37.076H18.5944V40.794H16.6584ZM11.5984 35.316H16.8564V28.43L11.5984 35.316ZM22.9639 39.782L23.4039 37.824H22.7439V35.536H24.5699V37.824L23.9099 39.782H22.9639ZM26.7686 30.828C26.7686 30.08 26.9079 29.3833 27.1866 28.738C27.4799 28.078 27.8759 27.506 28.3746 27.022C28.8879 26.5233 29.4819 26.1347 30.1566 25.856C30.8312 25.5773 31.5646 25.438 32.3566 25.438C33.1926 25.438 33.9552 25.592 34.6446 25.9C35.3486 26.208 35.9499 26.6553 36.4486 27.242C36.9472 27.814 37.3286 28.518 37.5926 29.354C37.8712 30.1753 38.0106 31.114 38.0106 32.17C38.0106 33.71 37.8712 35.0593 37.5926 36.218C37.3139 37.362 36.9179 38.3153 36.4046 39.078C35.8912 39.8553 35.2752 40.4347 34.5566 40.816C33.8379 41.1973 33.0386 41.388 32.1586 41.388C31.1466 41.388 30.2226 41.146 29.3866 40.662C28.5652 40.178 27.9199 39.496 27.4506 38.616L28.6386 37.45C28.9612 38.1393 29.4379 38.682 30.0686 39.078C30.6992 39.4887 31.4032 39.694 32.1806 39.694C33.3832 39.694 34.3439 39.1587 35.0626 38.088C35.7812 37.0173 36.1552 35.514 36.1846 33.578C35.8619 34.3407 35.3412 34.9493 34.6226 35.404C33.9039 35.8587 33.0826 36.086 32.1586 36.086C31.4106 36.086 30.7066 35.954 30.0466 35.69C29.3866 35.4113 28.8146 35.0373 28.3306 34.568C27.8466 34.0987 27.4652 33.5413 27.1866 32.896C26.9079 32.2507 26.7686 31.5613 26.7686 30.828ZM32.3346 27.11C31.8212 27.11 31.3372 27.2127 30.8826 27.418C30.4426 27.6087 30.0539 27.8727 29.7166 28.21C29.3792 28.5473 29.1079 28.9433 28.9026 29.398C28.7119 29.838 28.6166 30.3147 28.6166 30.828C28.6166 31.3413 28.7119 31.8253 28.9026 32.28C29.1079 32.72 29.3792 33.1087 29.7166 33.446C30.0539 33.7687 30.4426 34.0327 30.8826 34.238C31.3372 34.4287 31.8212 34.524 32.3346 34.524C32.8479 34.524 33.3246 34.4287 33.7646 34.238C34.2192 34.0327 34.6152 33.7687 34.9526 33.446C35.2899 33.1087 35.5539 32.72 35.7446 32.28C35.9499 31.8253 36.0526 31.3413 36.0526 30.828C36.0526 30.3293 35.9499 29.8527 35.7446 29.398C35.5539 28.9433 35.2899 28.5473 34.9526 28.21C34.6152 27.8727 34.2192 27.6087 33.7646 27.418C33.3099 27.2127 32.8332 27.11 32.3346 27.11Z" fill="white"/>
</svg>
